<svg width="100" height="100" viewBox="0 0 100 100" fill="none" xmlns="http://www.w3.org/2000/svg">
<g clip-path="url(#clip0_10_2)">
<rect width="100" height="100" rx="10" fill="#001D24"/>
<rect x="1" y="1" width="98" height="98" rx="49" fill="#00313C"/>
<path d="M34.873 53.5674C34.873 53.5674 34.6973 53.3037 34.3457 52.7764C33.9941 52.2197 33.8184 51.5752 33.8184 50.8428C33.8184 49.9932 34.2578 49.1875 35.1367 48.4258C36.3672 47.4004 37.9492 46.0527 39.8828 44.3828C41.8164 42.7129 43.75 40.8818 45.6836 38.8896C47.6465 36.8975 49.2871 34.876 50.6055 32.8252C51.9531 30.7451 52.627 28.8115 52.627 27.0244C52.627 26.5264 52.583 26.0137 52.4951 25.4863C52.4365 24.9297 52.29 24.3584 52.0557 23.7725L60.7129 19.6416C61.5625 19.2607 62.3096 19.0703 62.9541 19.0703C63.8623 19.0703 64.5947 19.3926 65.1514 20.0371C65.7373 20.6523 66.0303 21.4727 66.0303 22.498C66.0303 23.9922 65.5029 25.6475 64.4482 27.4639C63.3936 29.251 62.0166 31.082 60.3174 32.957C58.6475 34.832 56.875 36.6484 55 38.4062C53.125 40.1641 51.3379 41.7754 49.6387 43.2402C47.9395 44.6758 46.5332 45.8623 45.4199 46.7998C44.3359 47.7373 43.7646 48.3086 43.7061 48.5137L62.9541 74.9688L69.458 70.6621L71.5234 73.5186C70.7324 74.5146 69.6338 75.7451 68.2275 77.21C66.8213 78.6748 65.21 79.9785 63.3936 81.1211C61.5771 82.2344 59.6582 82.791 57.6367 82.791C56.8164 82.791 56.0986 82.6299 55.4834 82.3076C54.8975 82.0146 54.2676 81.3994 53.5938 80.4619L34.873 53.5674ZM31.6211 68.1572C31.6211 71.8779 31.7969 74.793 32.1484 76.9023C32.5293 78.9824 32.8076 80.4473 32.9834 81.2969C32.1338 81.7656 31.1084 82.1318 29.9072 82.3955C28.7061 82.6592 27.6074 82.791 26.6113 82.791C25.0879 82.791 23.8135 82.4834 22.7881 81.8682C21.792 81.2236 21.2939 80.0664 21.2939 78.3965V24.5635H12.8125V21.0918C13.7207 20.623 15.4053 20.1689 17.8662 19.7295C20.3271 19.29 22.9932 19.0703 25.8643 19.0703C28.1201 19.0703 29.6436 19.1729 30.4346 19.3779C31.2256 19.5537 31.6211 20.2129 31.6211 21.3555V68.1572Z" fill="white"/>
<circle cx="81.5" cy="76.5" r="6.5" fill="#11FFFF"/>
</g>
<defs>
<clipPath id="clip0_10_2">
<rect width="100" height="100" fill="white"/>
</clipPath>
</defs>
</svg>
