<svg width="1200" height="630" viewBox="0 0 1200 630" fill="none" xmlns="http://www.w3.org/2000/svg">
<rect width="1200" height="630" fill="white"/>
<rect y="499" width="1200" height="131" fill="#FAFAFA"/>
<path d="M503.16 593V573.5H515.88V577.82H508.32V581.54H514.8V585.86H508.32V593H503.16ZM519.244 593V573.5H526.624C528.024 573.5 529.314 573.69 530.494 574.07C531.674 574.43 532.624 575.07 533.344 575.99C534.064 576.91 534.424 578.18 534.424 579.8C534.424 581.36 534.064 582.63 533.344 583.61C532.624 584.59 531.674 585.31 530.494 585.77C529.314 586.23 528.024 586.46 526.624 586.46H524.404V593H519.244ZM529.744 593L525.694 585.11L529.174 581.69L535.504 593H529.744ZM524.404 582.38H526.264C527.284 582.38 528.054 582.16 528.574 581.72C529.114 581.28 529.384 580.64 529.384 579.8C529.384 578.96 529.114 578.38 528.574 578.06C528.054 577.74 527.284 577.58 526.264 577.58H524.404V582.38ZM538.14 593V573.5H550.74V577.82H543.3V580.88H549.66V585.2H543.3V588.68H551.04V593H538.14ZM554.81 593V573.5H567.41V577.82H559.97V580.88H566.33V585.2H559.97V588.68H567.71V593H554.81ZM577.486 593V573.5H590.206V577.82H582.646V581.54H589.126V585.86H582.646V593H577.486ZM601.79 593.36C599.99 593.36 598.41 592.96 597.05 592.16C595.69 591.34 594.63 590.17 593.87 588.65C593.11 587.13 592.73 585.3 592.73 583.16C592.73 581.02 593.11 579.21 593.87 577.73C594.63 576.23 595.69 575.09 597.05 574.31C598.41 573.53 599.99 573.14 601.79 573.14C603.59 573.14 605.17 573.53 606.53 574.31C607.89 575.09 608.95 576.23 609.71 577.73C610.47 579.21 610.85 581.02 610.85 583.16C610.85 585.3 610.47 587.13 609.71 588.65C608.95 590.17 607.89 591.34 606.53 592.16C605.17 592.96 603.59 593.36 601.79 593.36ZM601.79 588.92C602.57 588.92 603.24 588.69 603.8 588.23C604.38 587.75 604.82 587.08 605.12 586.22C605.42 585.36 605.57 584.34 605.57 583.16C605.57 581.98 605.42 580.98 605.12 580.16C604.82 579.32 604.38 578.68 603.8 578.24C603.24 577.8 602.57 577.58 601.79 577.58C601.01 577.58 600.33 577.8 599.75 578.24C599.19 578.68 598.76 579.32 598.46 580.16C598.16 580.98 598.01 581.98 598.01 583.16C598.01 584.34 598.16 585.36 598.46 586.22C598.76 587.08 599.19 587.75 599.75 588.23C600.33 588.69 601.01 588.92 601.79 588.92ZM614.342 593V573.5H621.722C623.122 573.5 624.412 573.69 625.592 574.07C626.772 574.43 627.722 575.07 628.442 575.99C629.162 576.91 629.522 578.18 629.522 579.8C629.522 581.36 629.162 582.63 628.442 583.61C627.722 584.59 626.772 585.31 625.592 585.77C624.412 586.23 623.122 586.46 621.722 586.46H619.502V593H614.342ZM624.842 593L620.792 585.11L624.272 581.69L630.602 593H624.842ZM619.502 582.38H621.362C622.382 582.38 623.152 582.16 623.672 581.72C624.212 581.28 624.482 580.64 624.482 579.8C624.482 578.96 624.212 578.38 623.672 578.06C623.152 577.74 622.382 577.58 621.362 577.58H619.502V582.38ZM633.238 593V573.5H645.838V577.82H638.398V580.88H644.758V585.2H638.398V588.68H646.138V593H633.238ZM653.208 593L647.448 573.5H652.908L654.948 582.02C655.228 583.06 655.468 584.09 655.668 585.11C655.888 586.11 656.128 587.14 656.388 588.2H656.508C656.788 587.14 657.028 586.11 657.228 585.11C657.448 584.09 657.688 583.06 657.948 582.02L659.928 573.5H665.208L659.448 593H653.208ZM667.076 593V573.5H679.676V577.82H672.236V580.88H678.596V585.2H672.236V588.68H679.976V593H667.076ZM683.746 593V573.5H691.126C692.526 573.5 693.816 573.69 694.996 574.07C696.176 574.43 697.126 575.07 697.846 575.99C698.566 576.91 698.926 578.18 698.926 579.8C698.926 581.36 698.566 582.63 697.846 583.61C697.126 584.59 696.176 585.31 694.996 585.77C693.816 586.23 692.526 586.46 691.126 586.46H688.906V593H683.746ZM694.246 593L690.196 585.11L693.676 581.69L700.006 593H694.246ZM688.906 582.38H690.766C691.786 582.38 692.556 582.16 693.076 581.72C693.616 581.28 693.886 580.64 693.886 579.8C693.886 578.96 693.616 578.38 693.076 578.06C692.556 577.74 691.786 577.58 690.766 577.58H688.906V582.38Z" fill="black"/>
<path d="M458.024 547V532.546H460.026L462.864 540.466C463.055 540.965 463.231 541.471 463.392 541.984C463.568 542.497 463.744 543.011 463.92 543.524H464.008C464.199 543.011 464.375 542.497 464.536 541.984C464.697 541.471 464.866 540.965 465.042 540.466L467.836 532.546H469.86V547H468.342V538.64C468.342 538.229 468.349 537.782 468.364 537.298C468.393 536.814 468.423 536.33 468.452 535.846C468.481 535.347 468.511 534.885 468.54 534.46H468.452L467.308 537.738L464.492 545.504H463.348L460.51 537.738L459.366 534.46H459.278C459.307 534.885 459.337 535.347 459.366 535.846C459.41 536.33 459.439 536.814 459.454 537.298C459.483 537.782 459.498 538.229 459.498 538.64V547H458.024ZM476.145 547.264C475.559 547.264 475.031 547.147 474.561 546.912C474.092 546.677 473.718 546.34 473.439 545.9C473.161 545.445 473.021 544.895 473.021 544.25C473.021 543.091 473.549 542.204 474.605 541.588C475.676 540.957 477.363 540.517 479.665 540.268C479.665 539.784 479.599 539.322 479.467 538.882C479.35 538.442 479.123 538.09 478.785 537.826C478.463 537.547 477.993 537.408 477.377 537.408C476.732 537.408 476.131 537.533 475.573 537.782C475.031 538.031 474.554 538.295 474.143 538.574L473.505 537.474C473.813 537.269 474.18 537.056 474.605 536.836C475.031 536.616 475.5 536.433 476.013 536.286C476.527 536.139 477.069 536.066 477.641 536.066C478.507 536.066 479.203 536.249 479.731 536.616C480.259 536.983 480.641 537.489 480.875 538.134C481.125 538.779 481.249 539.535 481.249 540.4V547H479.929L479.797 545.702H479.731C479.218 546.127 478.661 546.494 478.059 546.802C477.458 547.11 476.82 547.264 476.145 547.264ZM476.563 545.966C477.121 545.966 477.634 545.841 478.103 545.592C478.587 545.328 479.108 544.954 479.665 544.47V541.346C478.404 541.493 477.407 541.698 476.673 541.962C475.94 542.211 475.412 542.519 475.089 542.886C474.767 543.253 474.605 543.678 474.605 544.162C474.605 544.793 474.796 545.255 475.177 545.548C475.573 545.827 476.035 545.966 476.563 545.966ZM488.333 547.264C486.998 547.264 485.935 546.78 485.143 545.812C484.351 544.829 483.955 543.451 483.955 541.676C483.955 540.532 484.168 539.542 484.593 538.706C485.033 537.87 485.605 537.225 486.309 536.77C487.013 536.301 487.776 536.066 488.597 536.066C489.228 536.066 489.77 536.176 490.225 536.396C490.68 536.616 491.149 536.924 491.633 537.32L491.567 535.472V531.292H493.151V547H491.831L491.699 545.702H491.633C491.222 546.127 490.731 546.494 490.159 546.802C489.602 547.11 488.993 547.264 488.333 547.264ZM488.685 545.9C489.198 545.9 489.69 545.775 490.159 545.526C490.628 545.262 491.098 544.881 491.567 544.382V538.596C491.083 538.171 490.621 537.87 490.181 537.694C489.741 537.518 489.294 537.43 488.839 537.43C488.238 537.43 487.688 537.613 487.189 537.98C486.705 538.332 486.316 538.831 486.023 539.476C485.744 540.107 485.605 540.84 485.605 541.676C485.605 542.981 485.869 544.015 486.397 544.778C486.94 545.526 487.702 545.9 488.685 545.9ZM501.11 547.264C500.186 547.264 499.335 547.044 498.558 546.604C497.795 546.149 497.186 545.511 496.732 544.69C496.277 543.854 496.05 542.849 496.05 541.676C496.05 540.517 496.277 539.52 496.732 538.684C497.186 537.848 497.773 537.203 498.492 536.748C499.225 536.293 500.002 536.066 500.824 536.066C501.704 536.066 502.459 536.271 503.09 536.682C503.72 537.093 504.197 537.672 504.52 538.42C504.857 539.153 505.026 540.033 505.026 541.06C505.026 541.236 505.018 541.412 505.004 541.588C505.004 541.749 504.989 541.896 504.96 542.028H497.304L497.282 540.862H503.596C503.596 539.718 503.354 538.853 502.87 538.266C502.386 537.665 501.711 537.364 500.846 537.364C500.318 537.364 499.804 537.518 499.306 537.826C498.807 538.134 498.396 538.603 498.074 539.234C497.751 539.865 497.59 540.679 497.59 541.676C497.59 542.629 497.758 543.421 498.096 544.052C498.433 544.683 498.88 545.159 499.438 545.482C500.01 545.805 500.633 545.966 501.308 545.966C501.85 545.966 502.334 545.885 502.76 545.724C503.2 545.563 503.618 545.357 504.014 545.108L504.608 546.164C504.153 546.457 503.64 546.714 503.068 546.934C502.51 547.154 501.858 547.264 501.11 547.264ZM513.79 547L510.776 536.33H512.426L514.098 542.688C514.215 543.187 514.325 543.678 514.428 544.162C514.545 544.631 514.648 545.123 514.736 545.636H514.824C514.956 545.123 515.081 544.631 515.198 544.162C515.315 543.678 515.44 543.187 515.572 542.688L517.288 536.33H518.894L520.632 542.688C520.764 543.187 520.889 543.678 521.006 544.162C521.138 544.631 521.263 545.123 521.38 545.636H521.468C521.6 545.123 521.717 544.631 521.82 544.162C521.937 543.678 522.055 543.187 522.172 542.688L523.8 536.33H525.34L522.436 547H520.456L518.828 541.038C518.711 540.525 518.593 540.019 518.476 539.52C518.359 539.021 518.234 538.508 518.102 537.98H518.014C517.897 538.508 517.772 539.029 517.64 539.542C517.523 540.055 517.391 540.569 517.244 541.082L515.66 547H513.79ZM527.737 547V536.33H529.321V547H527.737ZM528.551 534.042C528.243 534.042 527.979 533.939 527.759 533.734C527.554 533.529 527.451 533.257 527.451 532.92C527.451 532.597 527.554 532.341 527.759 532.15C527.979 531.945 528.243 531.842 528.551 531.842C528.874 531.842 529.138 531.945 529.343 532.15C529.549 532.341 529.651 532.597 529.651 532.92C529.651 533.257 529.549 533.529 529.343 533.734C529.138 533.939 528.874 534.042 528.551 534.042ZM536.299 547.264C535.199 547.264 534.429 546.941 533.989 546.296C533.564 545.651 533.351 544.815 533.351 543.788V537.65H531.745V536.44L533.417 536.33L533.615 533.316H534.957V536.33H537.883V537.65H534.957V543.832C534.957 544.492 535.075 545.013 535.309 545.394C535.559 545.761 536.006 545.944 536.651 545.944C536.842 545.944 537.047 545.915 537.267 545.856C537.502 545.797 537.707 545.731 537.883 545.658L538.213 546.868C537.92 546.971 537.605 547.059 537.267 547.132C536.93 547.22 536.607 547.264 536.299 547.264ZM540.349 547V531.292H541.933V535.648L541.889 537.892C542.402 537.379 542.945 536.946 543.517 536.594C544.089 536.242 544.734 536.066 545.453 536.066C546.582 536.066 547.403 536.418 547.917 537.122C548.445 537.826 548.709 538.86 548.709 540.224V547H547.103V540.422C547.103 539.395 546.934 538.647 546.597 538.178C546.274 537.709 545.739 537.474 544.991 537.474C544.433 537.474 543.927 537.621 543.473 537.914C543.018 538.193 542.505 538.618 541.933 539.19V547H540.349ZM592.04 547.264C591.541 547.264 591.02 547.147 590.478 546.912C589.95 546.663 589.444 546.325 588.96 545.9H588.894L588.74 547H587.464V531.292H589.048V535.648L589.004 537.606C589.502 537.166 590.045 536.799 590.632 536.506C591.218 536.213 591.82 536.066 592.436 536.066C593.36 536.066 594.137 536.293 594.768 536.748C595.398 537.188 595.868 537.819 596.176 538.64C596.498 539.447 596.66 540.4 596.66 541.5C596.66 542.717 596.44 543.759 596 544.624C595.574 545.475 595.01 546.127 594.306 546.582C593.602 547.037 592.846 547.264 592.04 547.264ZM591.776 545.9C592.406 545.9 592.964 545.724 593.448 545.372C593.932 545.02 594.313 544.514 594.592 543.854C594.87 543.194 595.01 542.417 595.01 541.522C595.01 540.715 594.907 540.004 594.702 539.388C594.511 538.772 594.196 538.295 593.756 537.958C593.33 537.606 592.766 537.43 592.062 537.43C591.592 537.43 591.108 537.562 590.61 537.826C590.111 538.075 589.59 538.457 589.048 538.97V544.734C589.546 545.159 590.038 545.46 590.522 545.636C591.006 545.812 591.424 545.9 591.776 545.9ZM599.603 551.664C599.368 551.664 599.148 551.642 598.943 551.598C598.738 551.554 598.554 551.503 598.393 551.444L598.701 550.146C598.818 550.19 598.95 550.227 599.097 550.256C599.258 550.3 599.405 550.322 599.537 550.322C600.153 550.322 600.666 550.087 601.077 549.618C601.488 549.163 601.803 548.584 602.023 547.88L602.287 547.066L597.975 536.33H599.625L601.913 542.446C602.089 542.901 602.265 543.392 602.441 543.92C602.632 544.433 602.808 544.939 602.969 545.438H603.057C603.218 544.954 603.38 544.455 603.541 543.942C603.702 543.414 603.849 542.915 603.981 542.446L605.983 536.33H607.545L603.497 547.99C603.248 548.665 602.954 549.281 602.617 549.838C602.28 550.395 601.862 550.835 601.363 551.158C600.879 551.495 600.292 551.664 599.603 551.664ZM614.237 547V532.546H617.779C619.26 532.546 620.5 532.832 621.497 533.404C622.509 533.961 623.264 534.775 623.763 535.846C624.276 536.917 624.533 538.207 624.533 539.718C624.533 541.229 624.276 542.534 623.763 543.634C623.264 544.719 622.516 545.555 621.519 546.142C620.522 546.714 619.297 547 617.845 547H614.237ZM615.865 545.658H617.647C618.82 545.658 619.788 545.416 620.551 544.932C621.328 544.448 621.908 543.766 622.289 542.886C622.67 542.006 622.861 540.95 622.861 539.718C622.861 538.501 622.67 537.459 622.289 536.594C621.908 535.714 621.328 535.047 620.551 534.592C619.788 534.123 618.82 533.888 617.647 533.888H615.865V545.658ZM629.995 547.264C629.408 547.264 628.88 547.147 628.411 546.912C627.942 546.677 627.568 546.34 627.289 545.9C627.01 545.445 626.871 544.895 626.871 544.25C626.871 543.091 627.399 542.204 628.455 541.588C629.526 540.957 631.212 540.517 633.515 540.268C633.515 539.784 633.449 539.322 633.317 538.882C633.2 538.442 632.972 538.09 632.635 537.826C632.312 537.547 631.843 537.408 631.227 537.408C630.582 537.408 629.98 537.533 629.423 537.782C628.88 538.031 628.404 538.295 627.993 538.574L627.355 537.474C627.663 537.269 628.03 537.056 628.455 536.836C628.88 536.616 629.35 536.433 629.863 536.286C630.376 536.139 630.919 536.066 631.491 536.066C632.356 536.066 633.053 536.249 633.581 536.616C634.109 536.983 634.49 537.489 634.725 538.134C634.974 538.779 635.099 539.535 635.099 540.4V547H633.779L633.647 545.702H633.581C633.068 546.127 632.51 546.494 631.909 546.802C631.308 547.11 630.67 547.264 629.995 547.264ZM630.413 545.966C630.97 545.966 631.484 545.841 631.953 545.592C632.437 545.328 632.958 544.954 633.515 544.47V541.346C632.254 541.493 631.256 541.698 630.523 541.962C629.79 542.211 629.262 542.519 628.939 542.886C628.616 543.253 628.455 543.678 628.455 544.162C628.455 544.793 628.646 545.255 629.027 545.548C629.423 545.827 629.885 545.966 630.413 545.966ZM638.597 547V536.33H639.917L640.049 537.914H640.115C640.628 537.386 641.171 536.946 641.743 536.594C642.329 536.242 642.982 536.066 643.701 536.066C644.83 536.066 645.651 536.418 646.165 537.122C646.693 537.826 646.957 538.86 646.957 540.224V547H645.351V540.422C645.351 539.395 645.182 538.647 644.845 538.178C644.522 537.709 643.987 537.474 643.239 537.474C642.681 537.474 642.175 537.621 641.721 537.914C641.266 538.193 640.753 538.618 640.181 539.19V547H638.597ZM650.542 547V536.33H652.126V547H650.542ZM651.356 534.042C651.048 534.042 650.784 533.939 650.564 533.734C650.359 533.529 650.256 533.257 650.256 532.92C650.256 532.597 650.359 532.341 650.564 532.15C650.784 531.945 651.048 531.842 651.356 531.842C651.679 531.842 651.943 531.945 652.148 532.15C652.353 532.341 652.456 532.597 652.456 532.92C652.456 533.257 652.353 533.529 652.148 533.734C651.943 533.939 651.679 534.042 651.356 534.042ZM660.094 547.264C659.17 547.264 658.319 547.044 657.542 546.604C656.779 546.149 656.171 545.511 655.716 544.69C655.261 543.854 655.034 542.849 655.034 541.676C655.034 540.517 655.261 539.52 655.716 538.684C656.171 537.848 656.757 537.203 657.476 536.748C658.209 536.293 658.987 536.066 659.808 536.066C660.688 536.066 661.443 536.271 662.074 536.682C662.705 537.093 663.181 537.672 663.504 538.42C663.841 539.153 664.01 540.033 664.01 541.06C664.01 541.236 664.003 541.412 663.988 541.588C663.988 541.749 663.973 541.896 663.944 542.028H656.288L656.266 540.862H662.58C662.58 539.718 662.338 538.853 661.854 538.266C661.37 537.665 660.695 537.364 659.83 537.364C659.302 537.364 658.789 537.518 658.29 537.826C657.791 538.134 657.381 538.603 657.058 539.234C656.735 539.865 656.574 540.679 656.574 541.676C656.574 542.629 656.743 543.421 657.08 544.052C657.417 544.683 657.865 545.159 658.422 545.482C658.994 545.805 659.617 545.966 660.292 545.966C660.835 545.966 661.319 545.885 661.744 545.724C662.184 545.563 662.602 545.357 662.998 545.108L663.592 546.164C663.137 546.457 662.624 546.714 662.052 546.934C661.495 547.154 660.842 547.264 660.094 547.264ZM668.436 547.264C668.04 547.264 667.71 547.176 667.446 547C667.182 546.839 666.991 546.597 666.874 546.274C666.757 545.937 666.698 545.526 666.698 545.042V531.292H668.282V545.174C668.282 545.438 668.333 545.629 668.436 545.746C668.539 545.863 668.656 545.922 668.788 545.922C668.832 545.922 668.883 545.922 668.942 545.922C669.001 545.907 669.081 545.893 669.184 545.878L669.404 547.11C669.287 547.139 669.147 547.169 668.986 547.198C668.839 547.242 668.656 547.264 668.436 547.264ZM675.744 547V546.032L683.532 533.932H676.448V532.546H685.556V533.514L677.768 545.614H685.622V547H675.744ZM690.882 547.264C690.295 547.264 689.767 547.147 689.298 546.912C688.828 546.677 688.454 546.34 688.176 545.9C687.897 545.445 687.758 544.895 687.758 544.25C687.758 543.091 688.286 542.204 689.342 541.588C690.412 540.957 692.099 540.517 694.402 540.268C694.402 539.784 694.336 539.322 694.204 538.882C694.086 538.442 693.859 538.09 693.522 537.826C693.199 537.547 692.73 537.408 692.114 537.408C691.468 537.408 690.867 537.533 690.31 537.782C689.767 538.031 689.29 538.295 688.88 538.574L688.242 537.474C688.55 537.269 688.916 537.056 689.342 536.836C689.767 536.616 690.236 536.433 690.75 536.286C691.263 536.139 691.806 536.066 692.378 536.066C693.243 536.066 693.94 536.249 694.468 536.616C694.996 536.983 695.377 537.489 695.612 538.134C695.861 538.779 695.986 539.535 695.986 540.4V547H694.666L694.534 545.702H694.468C693.954 546.127 693.397 546.494 692.796 546.802C692.194 547.11 691.556 547.264 690.882 547.264ZM691.3 545.966C691.857 545.966 692.37 545.841 692.84 545.592C693.324 545.328 693.844 544.954 694.402 544.47V541.346C693.14 541.493 692.143 541.698 691.41 541.962C690.676 542.211 690.148 542.519 689.826 542.886C689.503 543.253 689.342 543.678 689.342 544.162C689.342 544.793 689.532 545.255 689.914 545.548C690.31 545.827 690.772 545.966 691.3 545.966ZM699.483 547V531.292H701.067V535.648L701.023 537.892C701.537 537.379 702.079 536.946 702.651 536.594C703.223 536.242 703.869 536.066 704.587 536.066C705.717 536.066 706.538 536.418 707.051 537.122C707.579 537.826 707.843 538.86 707.843 540.224V547H706.237V540.422C706.237 539.395 706.069 538.647 705.731 538.178C705.409 537.709 704.873 537.474 704.125 537.474C703.568 537.474 703.062 537.621 702.607 537.914C702.153 538.193 701.639 538.618 701.067 539.19V547H699.483ZM713.784 547.264C713.197 547.264 712.669 547.147 712.2 546.912C711.731 546.677 711.357 546.34 711.078 545.9C710.799 545.445 710.66 544.895 710.66 544.25C710.66 543.091 711.188 542.204 712.244 541.588C713.315 540.957 715.001 540.517 717.304 540.268C717.304 539.784 717.238 539.322 717.106 538.882C716.989 538.442 716.761 538.09 716.424 537.826C716.101 537.547 715.632 537.408 715.016 537.408C714.371 537.408 713.769 537.533 713.212 537.782C712.669 538.031 712.193 538.295 711.782 538.574L711.144 537.474C711.452 537.269 711.819 537.056 712.244 536.836C712.669 536.616 713.139 536.433 713.652 536.286C714.165 536.139 714.708 536.066 715.28 536.066C716.145 536.066 716.842 536.249 717.37 536.616C717.898 536.983 718.279 537.489 718.514 538.134C718.763 538.779 718.888 539.535 718.888 540.4V547H717.568L717.436 545.702H717.37C716.857 546.127 716.299 546.494 715.698 546.802C715.097 547.11 714.459 547.264 713.784 547.264ZM714.202 545.966C714.759 545.966 715.273 545.841 715.742 545.592C716.226 545.328 716.747 544.954 717.304 544.47V541.346C716.043 541.493 715.045 541.698 714.312 541.962C713.579 542.211 713.051 542.519 712.728 542.886C712.405 543.253 712.244 543.678 712.244 544.162C712.244 544.793 712.435 545.255 712.816 545.548C713.212 545.827 713.674 545.966 714.202 545.966ZM722.386 547V536.33H723.706L723.838 538.288H723.904C724.27 537.613 724.71 537.078 725.224 536.682C725.752 536.271 726.324 536.066 726.94 536.066C727.16 536.066 727.358 536.088 727.534 536.132C727.71 536.161 727.878 536.213 728.04 536.286L727.732 537.694C727.556 537.635 727.394 537.591 727.248 537.562C727.116 537.533 726.94 537.518 726.72 537.518C726.265 537.518 725.788 537.709 725.29 538.09C724.791 538.457 724.351 539.109 723.97 540.048V547H722.386ZM729.862 547V536.33H731.446V547H729.862ZM730.676 534.042C730.368 534.042 730.104 533.939 729.884 533.734C729.679 533.529 729.576 533.257 729.576 532.92C729.576 532.597 729.679 532.341 729.884 532.15C730.104 531.945 730.368 531.842 730.676 531.842C730.999 531.842 731.263 531.945 731.468 532.15C731.674 532.341 731.776 532.597 731.776 532.92C731.776 533.257 731.674 533.529 731.468 533.734C731.263 533.939 730.999 534.042 730.676 534.042ZM737.61 547.264C737.024 547.264 736.496 547.147 736.026 546.912C735.557 546.677 735.183 546.34 734.904 545.9C734.626 545.445 734.486 544.895 734.486 544.25C734.486 543.091 735.014 542.204 736.07 541.588C737.141 540.957 738.828 540.517 741.13 540.268C741.13 539.784 741.064 539.322 740.932 538.882C740.815 538.442 740.588 538.09 740.25 537.826C739.928 537.547 739.458 537.408 738.842 537.408C738.197 537.408 737.596 537.533 737.038 537.782C736.496 538.031 736.019 538.295 735.608 538.574L734.97 537.474C735.278 537.269 735.645 537.056 736.07 536.836C736.496 536.616 736.965 536.433 737.478 536.286C737.992 536.139 738.534 536.066 739.106 536.066C739.972 536.066 740.668 536.249 741.196 536.616C741.724 536.983 742.106 537.489 742.34 538.134C742.59 538.779 742.714 539.535 742.714 540.4V547H741.394L741.262 545.702H741.196C740.683 546.127 740.126 546.494 739.524 546.802C738.923 547.11 738.285 547.264 737.61 547.264ZM738.028 545.966C738.586 545.966 739.099 545.841 739.568 545.592C740.052 545.328 740.573 544.954 741.13 544.47V541.346C739.869 541.493 738.872 541.698 738.138 541.962C737.405 542.211 736.877 542.519 736.554 542.886C736.232 543.253 736.07 543.678 736.07 544.162C736.07 544.793 736.261 545.255 736.642 545.548C737.038 545.827 737.5 545.966 738.028 545.966Z" fill="black"/>
<g clip-path="url(#clip0_16_2)">
<rect x="55" y="28" width="100" height="100" rx="10" fill="#001D24"/>
<rect x="56" y="29" width="98" height="98" rx="49" fill="#00313C"/>
<path d="M89.873 81.5674C89.873 81.5674 89.6973 81.3037 89.3457 80.7764C88.9941 80.2197 88.8184 79.5752 88.8184 78.8428C88.8184 77.9932 89.2578 77.1875 90.1367 76.4258C91.3672 75.4004 92.9492 74.0527 94.8828 72.3828C96.8164 70.7129 98.75 68.8818 100.684 66.8896C102.646 64.8975 104.287 62.876 105.605 60.8252C106.953 58.7451 107.627 56.8115 107.627 55.0244C107.627 54.5264 107.583 54.0137 107.495 53.4863C107.437 52.9297 107.29 52.3584 107.056 51.7725L115.713 47.6416C116.562 47.2607 117.31 47.0703 117.954 47.0703C118.862 47.0703 119.595 47.3926 120.151 48.0371C120.737 48.6523 121.03 49.4727 121.03 50.498C121.03 51.9922 120.503 53.6475 119.448 55.4639C118.394 57.251 117.017 59.082 115.317 60.957C113.647 62.832 111.875 64.6484 110 66.4062C108.125 68.1641 106.338 69.7754 104.639 71.2402C102.939 72.6758 101.533 73.8623 100.42 74.7998C99.3359 75.7373 98.7646 76.3086 98.7061 76.5137L117.954 102.969L124.458 98.6621L126.523 101.519C125.732 102.515 124.634 103.745 123.228 105.21C121.821 106.675 120.21 107.979 118.394 109.121C116.577 110.234 114.658 110.791 112.637 110.791C111.816 110.791 111.099 110.63 110.483 110.308C109.897 110.015 109.268 109.399 108.594 108.462L89.873 81.5674ZM86.6211 96.1572C86.6211 99.8779 86.7969 102.793 87.1484 104.902C87.5293 106.982 87.8076 108.447 87.9834 109.297C87.1338 109.766 86.1084 110.132 84.9072 110.396C83.7061 110.659 82.6074 110.791 81.6113 110.791C80.0879 110.791 78.8135 110.483 77.7881 109.868C76.792 109.224 76.2939 108.066 76.2939 106.396V52.5635H67.8125V49.0918C68.7207 48.623 70.4053 48.1689 72.8662 47.7295C75.3271 47.29 77.9932 47.0703 80.8643 47.0703C83.1201 47.0703 84.6436 47.1729 85.4346 47.3779C86.2256 47.5537 86.6211 48.2129 86.6211 49.3555V96.1572Z" fill="white"/>
<circle cx="136.5" cy="104.5" r="6.5" fill="#11FFFF"/>
</g>
<path d="M173.08 81V46.728H176.488V70.44H176.632L186.952 57.72H190.84L183.064 67.032L191.896 81H188.104L181.048 69.48L176.488 74.856V81H173.08ZM205.351 81.576C203.463 81.576 201.703 81.096 200.071 80.136C198.439 79.176 197.127 77.8 196.135 76.008C195.143 74.184 194.647 71.976 194.647 69.384C194.647 66.792 195.143 64.584 196.135 62.76C197.127 60.936 198.439 59.544 200.071 58.584C201.703 57.624 203.463 57.144 205.351 57.144C207.239 57.144 208.983 57.624 210.583 58.584C212.215 59.544 213.527 60.936 214.519 62.76C215.543 64.584 216.055 66.792 216.055 69.384C216.055 71.976 215.543 74.184 214.519 76.008C213.527 77.8 212.215 79.176 210.583 80.136C208.983 81.096 207.239 81.576 205.351 81.576ZM205.351 78.648C206.759 78.648 207.991 78.264 209.047 77.496C210.135 76.728 210.967 75.656 211.543 74.28C212.151 72.872 212.455 71.24 212.455 69.384C212.455 67.56 212.151 65.944 211.543 64.536C210.967 63.128 210.135 62.04 209.047 61.272C207.991 60.472 206.759 60.072 205.351 60.072C203.975 60.072 202.743 60.472 201.655 61.272C200.599 62.04 199.767 63.128 199.159 64.536C198.583 65.944 198.295 67.56 198.295 69.384C198.295 71.24 198.583 72.872 199.159 74.28C199.767 75.656 200.599 76.728 201.655 77.496C202.743 78.264 203.975 78.648 205.351 78.648ZM222.393 81V57.72H225.273L225.561 61.176H225.705C226.825 60.024 228.009 59.064 229.257 58.296C230.537 57.528 231.961 57.144 233.529 57.144C235.993 57.144 237.785 57.912 238.905 59.448C240.057 60.984 240.633 63.24 240.633 66.216V81H237.129V66.648C237.129 64.408 236.761 62.776 236.025 61.752C235.321 60.728 234.153 60.216 232.521 60.216C231.305 60.216 230.201 60.536 229.209 61.176C228.217 61.784 227.097 62.712 225.849 63.96V81H222.393ZM253.447 81L244.951 57.72H248.551L253.159 71.304C253.543 72.424 253.911 73.56 254.263 74.712C254.647 75.864 255.015 77 255.367 78.12H255.559C255.911 77 256.279 75.864 256.663 74.712C257.047 73.56 257.415 72.424 257.767 71.304L262.375 57.72H265.831L257.479 81H253.447ZM279.702 81.576C277.686 81.576 275.83 81.096 274.134 80.136C272.47 79.144 271.142 77.752 270.15 75.96C269.158 74.136 268.662 71.944 268.662 69.384C268.662 66.856 269.158 64.68 270.15 62.856C271.142 61.032 272.422 59.624 273.99 58.632C275.59 57.64 277.286 57.144 279.078 57.144C280.998 57.144 282.646 57.592 284.022 58.488C285.398 59.384 286.438 60.648 287.142 62.28C287.878 63.88 288.246 65.8 288.246 68.04C288.246 68.424 288.23 68.808 288.198 69.192C288.198 69.544 288.166 69.864 288.102 70.152H271.398L271.35 67.608H285.126C285.126 65.112 284.598 63.224 283.542 61.944C282.486 60.632 281.014 59.976 279.126 59.976C277.974 59.976 276.854 60.312 275.766 60.984C274.678 61.656 273.782 62.68 273.078 64.056C272.374 65.432 272.022 67.208 272.022 69.384C272.022 71.464 272.39 73.192 273.126 74.568C273.862 75.944 274.838 76.984 276.054 77.688C277.302 78.392 278.662 78.744 280.134 78.744C281.318 78.744 282.374 78.568 283.302 78.216C284.262 77.864 285.174 77.416 286.038 76.872L287.334 79.176C286.342 79.816 285.222 80.376 283.974 80.856C282.758 81.336 281.334 81.576 279.702 81.576ZM294.111 81V57.72H296.991L297.279 61.992H297.423C298.223 60.52 299.183 59.352 300.303 58.488C301.455 57.592 302.703 57.144 304.047 57.144C304.527 57.144 304.959 57.192 305.343 57.288C305.727 57.352 306.095 57.464 306.447 57.624L305.775 60.696C305.391 60.568 305.039 60.472 304.719 60.408C304.431 60.344 304.047 60.312 303.567 60.312C302.575 60.312 301.535 60.728 300.447 61.56C299.359 62.36 298.399 63.784 297.567 65.832V81H294.111ZM317.48 81.576C315.08 81.576 313.4 80.872 312.44 79.464C311.512 78.056 311.048 76.232 311.048 73.992V60.6H307.544V57.96L311.192 57.72L311.624 51.144H314.552V57.72H320.936V60.6H314.552V74.088C314.552 75.528 314.808 76.664 315.32 77.496C315.864 78.296 316.84 78.696 318.248 78.696C318.664 78.696 319.112 78.632 319.592 78.504C320.104 78.376 320.552 78.232 320.936 78.072L321.656 80.712C321.016 80.936 320.328 81.128 319.592 81.288C318.856 81.48 318.152 81.576 317.48 81.576ZM335.53 81.576C333.514 81.576 331.658 81.096 329.962 80.136C328.298 79.144 326.97 77.752 325.978 75.96C324.986 74.136 324.49 71.944 324.49 69.384C324.49 66.856 324.986 64.68 325.978 62.856C326.97 61.032 328.25 59.624 329.818 58.632C331.418 57.64 333.114 57.144 334.906 57.144C336.826 57.144 338.474 57.592 339.85 58.488C341.226 59.384 342.266 60.648 342.97 62.28C343.706 63.88 344.074 65.8 344.074 68.04C344.074 68.424 344.058 68.808 344.026 69.192C344.026 69.544 343.994 69.864 343.93 70.152H327.226L327.178 67.608H340.954C340.954 65.112 340.426 63.224 339.37 61.944C338.314 60.632 336.842 59.976 334.954 59.976C333.802 59.976 332.682 60.312 331.594 60.984C330.506 61.656 329.61 62.68 328.906 64.056C328.202 65.432 327.85 67.208 327.85 69.384C327.85 71.464 328.218 73.192 328.954 74.568C329.69 75.944 330.666 76.984 331.882 77.688C333.13 78.392 334.49 78.744 335.962 78.744C337.146 78.744 338.202 78.568 339.13 78.216C340.09 77.864 341.002 77.416 341.866 76.872L343.162 79.176C342.17 79.816 341.05 80.376 339.802 80.856C338.586 81.336 337.162 81.576 335.53 81.576ZM349.939 81V57.72H352.819L353.107 61.992H353.251C354.051 60.52 355.011 59.352 356.131 58.488C357.283 57.592 358.531 57.144 359.875 57.144C360.355 57.144 360.787 57.192 361.171 57.288C361.555 57.352 361.923 57.464 362.275 57.624L361.603 60.696C361.219 60.568 360.867 60.472 360.547 60.408C360.259 60.344 359.875 60.312 359.395 60.312C358.403 60.312 357.363 60.728 356.275 61.56C355.187 62.36 354.227 63.784 353.395 65.832V81H349.939ZM364.14 70.344V67.608H375.036V70.344H364.14ZM389.898 81.576C388.01 81.576 386.25 81.096 384.618 80.136C382.986 79.176 381.674 77.8 380.682 76.008C379.69 74.184 379.194 71.976 379.194 69.384C379.194 66.792 379.69 64.584 380.682 62.76C381.674 60.936 382.986 59.544 384.618 58.584C386.25 57.624 388.01 57.144 389.898 57.144C391.786 57.144 393.53 57.624 395.13 58.584C396.762 59.544 398.074 60.936 399.066 62.76C400.09 64.584 400.602 66.792 400.602 69.384C400.602 71.976 400.09 74.184 399.066 76.008C398.074 77.8 396.762 79.176 395.13 80.136C393.53 81.096 391.786 81.576 389.898 81.576ZM389.898 78.648C391.306 78.648 392.538 78.264 393.594 77.496C394.682 76.728 395.514 75.656 396.09 74.28C396.698 72.872 397.002 71.24 397.002 69.384C397.002 67.56 396.698 65.944 396.09 64.536C395.514 63.128 394.682 62.04 393.594 61.272C392.538 60.472 391.306 60.072 389.898 60.072C388.522 60.072 387.29 60.472 386.202 61.272C385.146 62.04 384.314 63.128 383.706 64.536C383.13 65.944 382.842 67.56 382.842 69.384C382.842 71.24 383.13 72.872 383.706 74.28C384.314 75.656 385.146 76.728 386.202 77.496C387.29 78.264 388.522 78.648 389.898 78.648ZM406.939 81V57.72H409.819L410.107 61.176H410.251C411.371 60.024 412.555 59.064 413.803 58.296C415.083 57.528 416.507 57.144 418.075 57.144C420.539 57.144 422.331 57.912 423.451 59.448C424.603 60.984 425.179 63.24 425.179 66.216V81H421.675V66.648C421.675 64.408 421.307 62.776 420.571 61.752C419.867 60.728 418.699 60.216 417.067 60.216C415.851 60.216 414.747 60.536 413.755 61.176C412.763 61.784 411.643 62.712 410.395 63.96V81H406.939ZM436.794 81.576C435.93 81.576 435.21 81.384 434.634 81C434.058 80.648 433.642 80.12 433.386 79.416C433.13 78.68 433.002 77.784 433.002 76.728V46.728H436.458V77.016C436.458 77.592 436.57 78.008 436.794 78.264C437.018 78.52 437.274 78.648 437.562 78.648C437.658 78.648 437.77 78.648 437.898 78.648C438.026 78.616 438.202 78.584 438.426 78.552L438.906 81.24C438.65 81.304 438.346 81.368 437.994 81.432C437.674 81.528 437.274 81.576 436.794 81.576ZM445.002 81V57.72H448.458V81H445.002ZM446.778 52.728C446.106 52.728 445.53 52.504 445.05 52.056C444.602 51.608 444.378 51.016 444.378 50.28C444.378 49.576 444.602 49.016 445.05 48.6C445.53 48.152 446.106 47.928 446.778 47.928C447.482 47.928 448.058 48.152 448.506 48.6C448.954 49.016 449.178 49.576 449.178 50.28C449.178 51.016 448.954 51.608 448.506 52.056C448.058 52.504 447.482 52.728 446.778 52.728ZM456.627 81V57.72H459.507L459.795 61.176H459.939C461.059 60.024 462.243 59.064 463.491 58.296C464.771 57.528 466.195 57.144 467.763 57.144C470.227 57.144 472.019 57.912 473.139 59.448C474.291 60.984 474.867 63.24 474.867 66.216V81H471.363V66.648C471.363 64.408 470.995 62.776 470.259 61.752C469.555 60.728 468.387 60.216 466.755 60.216C465.539 60.216 464.435 60.536 463.443 61.176C462.451 61.784 461.331 62.712 460.083 63.96V81H456.627ZM491.905 81.576C489.889 81.576 488.033 81.096 486.337 80.136C484.673 79.144 483.345 77.752 482.353 75.96C481.361 74.136 480.865 71.944 480.865 69.384C480.865 66.856 481.361 64.68 482.353 62.856C483.345 61.032 484.625 59.624 486.193 58.632C487.793 57.64 489.489 57.144 491.281 57.144C493.201 57.144 494.849 57.592 496.225 58.488C497.601 59.384 498.641 60.648 499.345 62.28C500.081 63.88 500.449 65.8 500.449 68.04C500.449 68.424 500.433 68.808 500.401 69.192C500.401 69.544 500.369 69.864 500.305 70.152H483.601L483.553 67.608H497.329C497.329 65.112 496.801 63.224 495.745 61.944C494.689 60.632 493.217 59.976 491.329 59.976C490.177 59.976 489.057 60.312 487.969 60.984C486.881 61.656 485.985 62.68 485.281 64.056C484.577 65.432 484.225 67.208 484.225 69.384C484.225 71.464 484.593 73.192 485.329 74.568C486.065 75.944 487.041 76.984 488.257 77.688C489.505 78.392 490.865 78.744 492.337 78.744C493.521 78.744 494.577 78.568 495.505 78.216C496.465 77.864 497.377 77.416 498.241 76.872L499.537 79.176C498.545 79.816 497.425 80.376 496.177 80.856C494.961 81.336 493.537 81.576 491.905 81.576ZM508.042 81.576C507.338 81.576 506.714 81.32 506.17 80.808C505.658 80.296 505.402 79.624 505.402 78.792C505.402 77.928 505.658 77.24 506.17 76.728C506.714 76.216 507.338 75.96 508.042 75.96C508.778 75.96 509.402 76.216 509.914 76.728C510.426 77.24 510.682 77.928 510.682 78.792C510.682 79.624 510.426 80.296 509.914 80.808C509.402 81.32 508.778 81.576 508.042 81.576ZM526.963 81.576C524.915 81.576 523.075 81.096 521.443 80.136C519.811 79.176 518.515 77.8 517.555 76.008C516.595 74.184 516.115 71.976 516.115 69.384C516.115 66.792 516.627 64.584 517.651 62.76C518.707 60.936 520.067 59.544 521.731 58.584C523.395 57.624 525.219 57.144 527.203 57.144C528.739 57.144 530.051 57.432 531.139 58.008C532.227 58.552 533.171 59.192 533.971 59.928L532.147 62.232C531.475 61.592 530.739 61.08 529.939 60.696C529.171 60.28 528.307 60.072 527.347 60.072C525.875 60.072 524.563 60.472 523.411 61.272C522.291 62.04 521.395 63.128 520.723 64.536C520.083 65.944 519.763 67.56 519.763 69.384C519.763 71.24 520.067 72.872 520.675 74.28C521.315 75.656 522.195 76.728 523.315 77.496C524.435 78.264 525.747 78.648 527.251 78.648C528.371 78.648 529.411 78.408 530.371 77.928C531.331 77.448 532.179 76.888 532.915 76.248L534.451 78.6C533.427 79.528 532.275 80.264 530.995 80.808C529.715 81.32 528.371 81.576 526.963 81.576ZM548.616 81.576C546.728 81.576 544.968 81.096 543.336 80.136C541.704 79.176 540.392 77.8 539.4 76.008C538.408 74.184 537.912 71.976 537.912 69.384C537.912 66.792 538.408 64.584 539.4 62.76C540.392 60.936 541.704 59.544 543.336 58.584C544.968 57.624 546.728 57.144 548.616 57.144C550.504 57.144 552.248 57.624 553.848 58.584C555.48 59.544 556.792 60.936 557.784 62.76C558.808 64.584 559.32 66.792 559.32 69.384C559.32 71.976 558.808 74.184 557.784 76.008C556.792 77.8 555.48 79.176 553.848 80.136C552.248 81.096 550.504 81.576 548.616 81.576ZM548.616 78.648C550.024 78.648 551.256 78.264 552.312 77.496C553.4 76.728 554.232 75.656 554.808 74.28C555.416 72.872 555.72 71.24 555.72 69.384C555.72 67.56 555.416 65.944 554.808 64.536C554.232 63.128 553.4 62.04 552.312 61.272C551.256 60.472 550.024 60.072 548.616 60.072C547.24 60.072 546.008 60.472 544.92 61.272C543.864 62.04 543.032 63.128 542.424 64.536C541.848 65.944 541.56 67.56 541.56 69.384C541.56 71.24 541.848 72.872 542.424 74.28C543.032 75.656 543.864 76.728 544.92 77.496C546.008 78.264 547.24 78.648 548.616 78.648ZM565.658 81V57.72H568.538L568.826 61.176H568.97C569.994 60.056 571.114 59.112 572.33 58.344C573.578 57.544 574.874 57.144 576.218 57.144C578.042 57.144 579.45 57.56 580.442 58.392C581.466 59.192 582.202 60.28 582.65 61.656C583.898 60.312 585.146 59.224 586.394 58.392C587.674 57.56 589.002 57.144 590.378 57.144C592.778 57.144 594.554 57.912 595.706 59.448C596.858 60.984 597.434 63.24 597.434 66.216V81H593.93V66.648C593.93 64.408 593.562 62.776 592.826 61.752C592.09 60.728 590.938 60.216 589.37 60.216C588.442 60.216 587.466 60.536 586.442 61.176C585.45 61.784 584.394 62.712 583.274 63.96V81H579.77V66.648C579.77 64.408 579.402 62.776 578.666 61.752C577.962 60.728 576.826 60.216 575.258 60.216C573.402 60.216 571.354 61.464 569.114 63.96V81H565.658Z" fill="black"/>
<path d="M185 114.7V114.775H180.75C180.633 114.375 180.492 113.917 180.325 113.4C180.175 112.883 180.008 112.333 179.825 111.75H174.425C174.092 112.917 173.783 113.925 173.5 114.775H169.25V114.725L174.375 98.95H179.875L185 114.7ZM177.075 101.8C176.908 102.65 176.667 103.683 176.35 104.9C176.033 106.117 175.7 107.358 175.35 108.625H178.925C178.558 107.358 178.217 106.117 177.9 104.9C177.583 103.683 177.342 102.65 177.175 101.8H177.075ZM186.76 114.775V98.95H193.685C195.068 98.95 196.226 99.0667 197.16 99.3C198.093 99.5167 198.843 99.9083 199.41 100.475C199.976 101.042 200.385 101.833 200.635 102.85C200.885 103.85 201.01 105.142 201.01 106.725C201.01 108.375 200.885 109.725 200.635 110.775C200.385 111.825 199.976 112.642 199.41 113.225C198.843 113.808 198.093 114.217 197.16 114.45C196.226 114.667 195.068 114.775 193.685 114.775H186.76ZM193.11 102.325H190.76V111.4H193.11C194.076 111.4 194.835 111.292 195.385 111.075C195.951 110.858 196.351 110.417 196.585 109.75C196.835 109.083 196.96 108.075 196.96 106.725C196.96 105.442 196.835 104.492 196.585 103.875C196.351 103.242 195.951 102.825 195.385 102.625C194.835 102.425 194.076 102.325 193.11 102.325ZM217.933 98.975L213.008 114.775H207.508L202.833 98.975H207.308C207.574 99.8083 207.858 100.758 208.158 101.825C208.458 102.892 208.749 103.983 209.033 105.1C209.333 106.2 209.591 107.233 209.808 108.2C210.041 109.15 210.216 109.942 210.333 110.575H210.433C210.549 109.942 210.716 109.15 210.933 108.2C211.166 107.233 211.424 106.2 211.708 105.1C212.008 104 212.308 102.917 212.608 101.85C212.908 100.783 213.191 99.825 213.458 98.975H217.933ZM234.731 114.7V114.775H230.481C230.365 114.375 230.223 113.917 230.056 113.4C229.906 112.883 229.74 112.333 229.556 111.75H224.156C223.823 112.917 223.515 113.925 223.231 114.775H218.981V114.725L224.106 98.95H229.606L234.731 114.7ZM226.806 101.8C226.64 102.65 226.398 103.683 226.081 104.9C225.765 106.117 225.431 107.358 225.081 108.625H228.656C228.29 107.358 227.948 106.117 227.631 104.9C227.315 103.683 227.073 102.65 226.906 101.8H226.806ZM246.741 98.95H250.741V114.775H246.766L242.266 108.075C241.916 107.542 241.625 107.092 241.391 106.725C241.158 106.358 240.941 105.992 240.741 105.625C240.541 105.258 240.316 104.825 240.066 104.325L239.991 104.425C240.225 105.225 240.366 105.975 240.416 106.675C240.466 107.358 240.491 108.025 240.491 108.675V114.775H236.491V98.95H240.466L244.966 105.65C245.316 106.167 245.608 106.617 245.841 107C246.075 107.367 246.291 107.733 246.491 108.1C246.691 108.467 246.916 108.9 247.166 109.4L247.241 109.3C247.075 108.6 246.95 107.925 246.866 107.275C246.783 106.608 246.741 105.95 246.741 105.3V98.95ZM265.552 111.35V114.5C264.752 114.667 263.969 114.792 263.202 114.875C262.435 114.958 261.527 115 260.477 115C259.127 115 257.985 114.883 257.052 114.65C256.135 114.417 255.394 114.008 254.827 113.425C254.277 112.825 253.877 111.983 253.627 110.9C253.377 109.817 253.252 108.425 253.252 106.725C253.252 105.092 253.377 103.75 253.627 102.7C253.877 101.65 254.277 100.842 254.827 100.275C255.394 99.6917 256.135 99.2917 257.052 99.075C257.985 98.8417 259.127 98.725 260.477 98.725C261.527 98.725 262.435 98.7667 263.202 98.85C263.969 98.9167 264.752 99.0417 265.552 99.225V102.475L265.477 102.525C264.777 102.358 264.102 102.242 263.452 102.175C262.802 102.092 262.002 102.05 261.052 102.05C260.285 102.05 259.652 102.108 259.152 102.225C258.669 102.325 258.285 102.533 258.002 102.85C257.719 103.167 257.519 103.633 257.402 104.25C257.302 104.867 257.252 105.692 257.252 106.725C257.252 107.808 257.302 108.683 257.402 109.35C257.519 110 257.719 110.492 258.002 110.825C258.285 111.158 258.669 111.383 259.152 111.5C259.652 111.617 260.285 111.675 261.052 111.675C261.985 111.675 262.777 111.65 263.427 111.6C264.094 111.533 264.76 111.417 265.427 111.25L265.552 111.35ZM267.668 114.775V98.95H279.418V102.2H271.668V105.2H278.393V108.45H271.668V111.525H279.418V114.775H267.668ZM281.413 114.775V98.95H288.338C289.721 98.95 290.88 99.0667 291.813 99.3C292.746 99.5167 293.496 99.9083 294.063 100.475C294.63 101.042 295.038 101.833 295.288 102.85C295.538 103.85 295.663 105.142 295.663 106.725C295.663 108.375 295.538 109.725 295.288 110.775C295.038 111.825 294.63 112.642 294.063 113.225C293.496 113.808 292.746 114.217 291.813 114.45C290.88 114.667 289.721 114.775 288.338 114.775H281.413ZM287.763 102.325H285.413V111.4H287.763C288.73 111.4 289.488 111.292 290.038 111.075C290.605 110.858 291.005 110.417 291.238 109.75C291.488 109.083 291.613 108.075 291.613 106.725C291.613 105.442 291.488 104.492 291.238 103.875C291.005 103.242 290.605 102.825 290.038 102.625C289.488 102.425 288.73 102.325 287.763 102.325ZM308.906 114.775V102.325H304.406V98.95H317.406V102.325H312.906V114.775H308.906ZM318.657 106.85C318.657 104.833 318.882 103.233 319.332 102.05C319.799 100.867 320.591 100.017 321.707 99.5C322.841 98.9833 324.416 98.725 326.432 98.725C327.949 98.725 329.207 98.8667 330.207 99.15C331.207 99.4333 331.999 99.8917 332.582 100.525C333.166 101.158 333.574 102 333.807 103.05C334.057 104.083 334.182 105.35 334.182 106.85C334.182 108.367 334.057 109.65 333.807 110.7C333.574 111.733 333.166 112.567 332.582 113.2C331.999 113.833 331.207 114.292 330.207 114.575C329.207 114.858 327.949 115 326.432 115C324.916 115 323.657 114.858 322.657 114.575C321.657 114.292 320.866 113.833 320.282 113.2C319.699 112.567 319.282 111.733 319.032 110.7C318.782 109.65 318.657 108.367 318.657 106.85ZM326.432 111.5C327.499 111.5 328.299 111.367 328.832 111.1C329.366 110.833 329.724 110.367 329.907 109.7C330.091 109.017 330.182 108.067 330.182 106.85C330.182 105.65 330.091 104.717 329.907 104.05C329.724 103.383 329.366 102.917 328.832 102.65C328.299 102.367 327.499 102.225 326.432 102.225C325.382 102.225 324.582 102.367 324.032 102.65C323.499 102.917 323.132 103.383 322.932 104.05C322.749 104.717 322.657 105.65 322.657 106.85C322.657 108.067 322.749 109.017 322.932 109.7C323.132 110.367 323.499 110.833 324.032 111.1C324.582 111.367 325.382 111.5 326.432 111.5ZM336.187 106.85C336.187 104.833 336.412 103.233 336.862 102.05C337.328 100.867 338.12 100.017 339.237 99.5C340.37 98.9833 341.945 98.725 343.962 98.725C345.478 98.725 346.737 98.8667 347.737 99.15C348.737 99.4333 349.528 99.8917 350.112 100.525C350.695 101.158 351.103 102 351.337 103.05C351.587 104.083 351.712 105.35 351.712 106.85C351.712 108.367 351.587 109.65 351.337 110.7C351.103 111.733 350.695 112.567 350.112 113.2C349.528 113.833 348.737 114.292 347.737 114.575C346.737 114.858 345.478 115 343.962 115C342.445 115 341.187 114.858 340.187 114.575C339.187 114.292 338.395 113.833 337.812 113.2C337.228 112.567 336.812 111.733 336.562 110.7C336.312 109.65 336.187 108.367 336.187 106.85ZM343.962 111.5C345.028 111.5 345.828 111.367 346.362 111.1C346.895 110.833 347.253 110.367 347.437 109.7C347.62 109.017 347.712 108.067 347.712 106.85C347.712 105.65 347.62 104.717 347.437 104.05C347.253 103.383 346.895 102.917 346.362 102.65C345.828 102.367 345.028 102.225 343.962 102.225C342.912 102.225 342.112 102.367 341.562 102.65C341.028 102.917 340.662 103.383 340.462 104.05C340.278 104.717 340.187 105.65 340.187 106.85C340.187 108.067 340.278 109.017 340.462 109.7C340.662 110.367 341.028 110.833 341.562 111.1C342.112 111.367 342.912 111.5 343.962 111.5ZM365.716 111.375V114.775H354.216V98.95H358.216V111.375H365.716ZM367.073 110.7C367.806 110.95 368.606 111.15 369.473 111.3C370.356 111.433 371.231 111.5 372.098 111.5C373.281 111.5 374.156 111.45 374.723 111.35C375.306 111.233 375.689 111.058 375.873 110.825C376.056 110.592 376.148 110.292 376.148 109.925C376.148 109.608 376.081 109.358 375.948 109.175C375.814 108.992 375.556 108.85 375.173 108.75C374.789 108.633 374.223 108.542 373.473 108.475L371.823 108.325C370.589 108.208 369.614 107.95 368.898 107.55C368.198 107.15 367.698 106.617 367.398 105.95C367.114 105.267 366.973 104.45 366.973 103.5C366.973 102.367 367.198 101.45 367.648 100.75C368.114 100.05 368.864 99.5417 369.898 99.225C370.931 98.8917 372.306 98.725 374.023 98.725C376.256 98.725 378.098 99.0167 379.548 99.6L379.473 103L379.398 103.1C377.748 102.517 376.023 102.225 374.223 102.225C373.356 102.225 372.689 102.275 372.223 102.375C371.756 102.458 371.431 102.6 371.248 102.8C371.064 103 370.973 103.283 370.973 103.65C370.973 104.017 371.031 104.292 371.148 104.475C371.281 104.658 371.539 104.8 371.923 104.9C372.306 104.983 372.864 105.067 373.598 105.15L375.173 105.325C376.506 105.475 377.531 105.742 378.248 106.125C378.964 106.508 379.456 107.025 379.723 107.675C380.006 108.308 380.148 109.083 380.148 110C380.148 111.117 379.906 112.05 379.423 112.8C378.956 113.533 378.189 114.083 377.123 114.45C376.056 114.817 374.631 115 372.848 115C371.681 115 370.631 114.942 369.698 114.825C368.764 114.692 367.856 114.517 366.973 114.3V110.775L367.073 110.7ZM394.153 114.775H390.153V98.95H401.903V102.2H394.153V105.825H401.403V109.075H394.153V114.775ZM403.276 106.85C403.276 104.833 403.501 103.233 403.951 102.05C404.418 100.867 405.21 100.017 406.326 99.5C407.46 98.9833 409.035 98.725 411.051 98.725C412.568 98.725 413.826 98.8667 414.826 99.15C415.826 99.4333 416.618 99.8917 417.201 100.525C417.785 101.158 418.193 102 418.426 103.05C418.676 104.083 418.801 105.35 418.801 106.85C418.801 108.367 418.676 109.65 418.426 110.7C418.193 111.733 417.785 112.567 417.201 113.2C416.618 113.833 415.826 114.292 414.826 114.575C413.826 114.858 412.568 115 411.051 115C409.535 115 408.276 114.858 407.276 114.575C406.276 114.292 405.485 113.833 404.901 113.2C404.318 112.567 403.901 111.733 403.651 110.7C403.401 109.65 403.276 108.367 403.276 106.85ZM411.051 111.5C412.118 111.5 412.918 111.367 413.451 111.1C413.985 110.833 414.343 110.367 414.526 109.7C414.71 109.017 414.801 108.067 414.801 106.85C414.801 105.65 414.71 104.717 414.526 104.05C414.343 103.383 413.985 102.917 413.451 102.65C412.918 102.367 412.118 102.225 411.051 102.225C410.001 102.225 409.201 102.367 408.651 102.65C408.118 102.917 407.751 103.383 407.551 104.05C407.368 104.717 407.276 105.65 407.276 106.85C407.276 108.067 407.368 109.017 407.551 109.7C407.751 110.367 408.118 110.833 408.651 111.1C409.201 111.367 410.001 111.5 411.051 111.5ZM425.306 114.775H421.306V98.95H428.856C430.839 98.95 432.281 99.4 433.181 100.3C434.097 101.183 434.556 102.492 434.556 104.225C434.556 105.525 434.231 106.642 433.581 107.575C432.931 108.492 432.072 109.067 431.006 109.3L430.981 109.375C431.397 109.642 431.856 110.083 432.356 110.7C432.856 111.317 433.347 111.992 433.831 112.725C434.331 113.442 434.772 114.117 435.156 114.75V114.775H430.506L427.806 110.775C427.572 110.425 427.381 110.175 427.231 110.025C427.097 109.875 426.931 109.783 426.731 109.75C426.547 109.717 426.247 109.7 425.831 109.7H425.306V114.775ZM428.206 102.2H425.306V106.45H428.206C429.039 106.45 429.614 106.283 429.931 105.95C430.264 105.617 430.431 105.075 430.431 104.325C430.431 103.575 430.264 103.033 429.931 102.7C429.614 102.367 429.039 102.2 428.206 102.2ZM444.914 114.775V98.95H451.839C453.222 98.95 454.381 99.0667 455.314 99.3C456.247 99.5167 456.997 99.9083 457.564 100.475C458.131 101.042 458.539 101.833 458.789 102.85C459.039 103.85 459.164 105.142 459.164 106.725C459.164 108.375 459.039 109.725 458.789 110.775C458.539 111.825 458.131 112.642 457.564 113.225C456.997 113.808 456.247 114.217 455.314 114.45C454.381 114.667 453.222 114.775 451.839 114.775H444.914ZM451.264 102.325H448.914V111.4H451.264C452.231 111.4 452.989 111.292 453.539 111.075C454.106 110.858 454.506 110.417 454.739 109.75C454.989 109.083 455.114 108.075 455.114 106.725C455.114 105.442 454.989 104.492 454.739 103.875C454.506 103.242 454.106 102.825 453.539 102.625C452.989 102.425 452.231 102.325 451.264 102.325ZM461.662 114.775V98.95H473.412V102.2H465.662V105.2H472.387V108.45H465.662V111.525H473.412V114.775H461.662ZM489.832 98.975L484.907 114.775H479.407L474.732 98.975H479.207C479.474 99.8083 479.757 100.758 480.057 101.825C480.357 102.892 480.649 103.983 480.932 105.1C481.232 106.2 481.491 107.233 481.707 108.2C481.941 109.15 482.116 109.942 482.232 110.575H482.332C482.449 109.942 482.616 109.15 482.832 108.2C483.066 107.233 483.324 106.2 483.607 105.1C483.907 104 484.207 102.917 484.507 101.85C484.807 100.783 485.091 99.825 485.357 98.975H489.832ZM492.131 114.775V98.95H503.881V102.2H496.131V105.2H502.856V108.45H496.131V111.525H503.881V114.775H492.131ZM517.376 111.375V114.775H505.876V98.95H509.876V111.375H517.376ZM518.633 106.85C518.633 104.833 518.858 103.233 519.308 102.05C519.774 100.867 520.566 100.017 521.683 99.5C522.816 98.9833 524.391 98.725 526.408 98.725C527.924 98.725 529.183 98.8667 530.183 99.15C531.183 99.4333 531.974 99.8917 532.558 100.525C533.141 101.158 533.549 102 533.783 103.05C534.033 104.083 534.158 105.35 534.158 106.85C534.158 108.367 534.033 109.65 533.783 110.7C533.549 111.733 533.141 112.567 532.558 113.2C531.974 113.833 531.183 114.292 530.183 114.575C529.183 114.858 527.924 115 526.408 115C524.891 115 523.633 114.858 522.633 114.575C521.633 114.292 520.841 113.833 520.258 113.2C519.674 112.567 519.258 111.733 519.008 110.7C518.758 109.65 518.633 108.367 518.633 106.85ZM526.408 111.5C527.474 111.5 528.274 111.367 528.808 111.1C529.341 110.833 529.699 110.367 529.883 109.7C530.066 109.017 530.158 108.067 530.158 106.85C530.158 105.65 530.066 104.717 529.883 104.05C529.699 103.383 529.341 102.917 528.808 102.65C528.274 102.367 527.474 102.225 526.408 102.225C525.358 102.225 524.558 102.367 524.008 102.65C523.474 102.917 523.108 103.383 522.908 104.05C522.724 104.717 522.633 105.65 522.633 106.85C522.633 108.067 522.724 109.017 522.908 109.7C523.108 110.367 523.474 110.833 524.008 111.1C524.558 111.367 525.358 111.5 526.408 111.5ZM540.662 114.775H536.662V98.95H543.712C545.295 98.95 546.562 99.1417 547.512 99.525C548.462 99.9083 549.145 100.533 549.562 101.4C549.979 102.267 550.187 103.442 550.187 104.925C550.187 106.325 549.979 107.467 549.562 108.35C549.145 109.217 548.462 109.858 547.512 110.275C546.562 110.692 545.295 110.9 543.712 110.9H540.662V114.775ZM543.062 102.225H540.662V107.625H543.062C544.245 107.625 545.037 107.425 545.437 107.025C545.837 106.625 546.037 105.925 546.037 104.925C546.037 103.975 545.837 103.292 545.437 102.875C545.037 102.442 544.245 102.225 543.062 102.225ZM552.312 114.775V98.95H564.062V102.2H556.312V105.2H563.037V108.45H556.312V111.525H564.062V114.775H552.312ZM570.057 114.775H566.057V98.95H573.607C575.59 98.95 577.032 99.4 577.932 100.3C578.848 101.183 579.307 102.492 579.307 104.225C579.307 105.525 578.982 106.642 578.332 107.575C577.682 108.492 576.823 109.067 575.757 109.3L575.732 109.375C576.148 109.642 576.607 110.083 577.107 110.7C577.607 111.317 578.098 111.992 578.582 112.725C579.082 113.442 579.523 114.117 579.907 114.75V114.775H575.257L572.557 110.775C572.323 110.425 572.132 110.175 571.982 110.025C571.848 109.875 571.682 109.783 571.482 109.75C571.298 109.717 570.998 109.7 570.582 109.7H570.057V114.775ZM572.957 102.2H570.057V106.45H572.957C573.79 106.45 574.365 106.283 574.682 105.95C575.015 105.617 575.182 105.075 575.182 104.325C575.182 103.575 575.015 103.033 574.682 102.7C574.365 102.367 573.79 102.2 572.957 102.2ZM581.77 110.7C582.503 110.95 583.303 111.15 584.17 111.3C585.053 111.433 585.928 111.5 586.795 111.5C587.978 111.5 588.853 111.45 589.42 111.35C590.003 111.233 590.387 111.058 590.57 110.825C590.753 110.592 590.845 110.292 590.845 109.925C590.845 109.608 590.778 109.358 590.645 109.175C590.512 108.992 590.253 108.85 589.87 108.75C589.487 108.633 588.92 108.542 588.17 108.475L586.52 108.325C585.287 108.208 584.312 107.95 583.595 107.55C582.895 107.15 582.395 106.617 582.095 105.95C581.812 105.267 581.67 104.45 581.67 103.5C581.67 102.367 581.895 101.45 582.345 100.75C582.812 100.05 583.562 99.5417 584.595 99.225C585.628 98.8917 587.003 98.725 588.72 98.725C590.953 98.725 592.795 99.0167 594.245 99.6L594.17 103L594.095 103.1C592.445 102.517 590.72 102.225 588.92 102.225C588.053 102.225 587.387 102.275 586.92 102.375C586.453 102.458 586.128 102.6 585.945 102.8C585.762 103 585.67 103.283 585.67 103.65C585.67 104.017 585.728 104.292 585.845 104.475C585.978 104.658 586.237 104.8 586.62 104.9C587.003 104.983 587.562 105.067 588.295 105.15L589.87 105.325C591.203 105.475 592.228 105.742 592.945 106.125C593.662 106.508 594.153 107.025 594.42 107.675C594.703 108.308 594.845 109.083 594.845 110C594.845 111.117 594.603 112.05 594.12 112.8C593.653 113.533 592.887 114.083 591.82 114.45C590.753 114.817 589.328 115 587.545 115C586.378 115 585.328 114.942 584.395 114.825C583.462 114.692 582.553 114.517 581.67 114.3V110.775L581.77 110.7Z" fill="#0C91AC"/>
<line x1="55" y1="146.5" x2="1146" y2="146.5" stroke="#D8D8D8"/>
<path d="M61.46 263.24C60.5667 263.24 59.72 263.067 58.92 262.72C58.12 262.373 57.4133 261.9 56.8 261.3L58 259.92C58.4667 260.387 59.0067 260.76 59.62 261.04C60.2333 261.32 60.86 261.46 61.5 261.46C62.3 261.46 62.9133 261.293 63.34 260.96C63.7667 260.613 63.98 260.153 63.98 259.58C63.98 259.18 63.8867 258.86 63.7 258.62C63.5267 258.38 63.28 258.173 62.96 258C62.6533 257.827 62.2933 257.653 61.88 257.48L60.06 256.68C59.6333 256.507 59.2133 256.273 58.8 255.98C58.4 255.687 58.0667 255.32 57.8 254.88C57.5333 254.44 57.4 253.9 57.4 253.26C57.4 252.567 57.5867 251.953 57.96 251.42C58.3333 250.873 58.84 250.447 59.48 250.14C60.12 249.82 60.8533 249.66 61.68 249.66C62.4533 249.66 63.18 249.813 63.86 250.12C64.5533 250.413 65.1467 250.807 65.64 251.3L64.58 252.6C64.18 252.24 63.74 251.96 63.26 251.76C62.78 251.547 62.2533 251.44 61.68 251.44C61.0133 251.44 60.4733 251.593 60.06 251.9C59.66 252.193 59.46 252.607 59.46 253.14C59.46 253.513 59.56 253.82 59.76 254.06C59.96 254.3 60.2267 254.5 60.56 254.66C60.8933 254.82 61.2333 254.98 61.58 255.14L63.38 255.9C63.9 256.113 64.36 256.373 64.76 256.68C65.16 256.987 65.4733 257.36 65.7 257.8C65.94 258.24 66.06 258.78 66.06 259.42C66.06 260.127 65.8733 260.773 65.5 261.36C65.14 261.933 64.6133 262.393 63.92 262.74C63.2267 263.073 62.4067 263.24 61.46 263.24ZM70.8808 263L66.7608 249.9H68.9208L70.8808 256.7C71.1074 257.46 71.3074 258.18 71.4808 258.86C71.6541 259.527 71.8541 260.24 72.0808 261H72.1608C72.3874 260.24 72.5874 259.527 72.7608 258.86C72.9474 258.18 73.1474 257.46 73.3608 256.7L75.3008 249.9H77.3808L73.2808 263H70.8808ZM84.4077 263.24C83.2343 263.24 82.1877 262.98 81.2677 262.46C80.361 261.927 79.6477 261.153 79.1277 260.14C78.6077 259.127 78.3477 257.907 78.3477 256.48C78.3477 255.413 78.501 254.46 78.8077 253.62C79.1277 252.78 79.561 252.067 80.1077 251.48C80.6543 250.88 81.301 250.427 82.0477 250.12C82.7943 249.813 83.601 249.66 84.4677 249.66C85.3877 249.66 86.161 249.833 86.7877 250.18C87.4277 250.513 87.9477 250.887 88.3477 251.3L87.2477 252.62C86.9277 252.287 86.5477 252.007 86.1077 251.78C85.681 251.553 85.1543 251.44 84.5277 251.44C83.701 251.44 82.981 251.64 82.3677 252.04C81.7543 252.44 81.281 253.013 80.9477 253.76C80.6143 254.507 80.4477 255.393 80.4477 256.42C80.4477 257.46 80.6077 258.36 80.9277 259.12C81.2477 259.867 81.7143 260.447 82.3277 260.86C82.941 261.26 83.701 261.46 84.6077 261.46C85.021 261.46 85.4143 261.407 85.7877 261.3C86.161 261.18 86.461 261.013 86.6877 260.8V257.72H84.0877V256.04H88.5277V261.7C88.101 262.14 87.5277 262.507 86.8077 262.8C86.101 263.093 85.301 263.24 84.4077 263.24ZM100.633 263.24C99.5392 263.24 98.5525 262.98 97.6725 262.46C96.7925 261.927 96.0925 261.153 95.5725 260.14C95.0658 259.127 94.8125 257.907 94.8125 256.48C94.8125 255.413 94.9592 254.46 95.2525 253.62C95.5592 252.78 95.9792 252.067 96.5125 251.48C97.0592 250.88 97.6925 250.427 98.4125 250.12C99.1325 249.813 99.9058 249.66 100.733 249.66C101.546 249.66 102.266 249.827 102.893 250.16C103.519 250.48 104.033 250.86 104.433 251.3L103.333 252.62C102.999 252.26 102.619 251.973 102.193 251.76C101.779 251.547 101.306 251.44 100.773 251.44C100.013 251.44 99.3392 251.64 98.7525 252.04C98.1792 252.44 97.7258 253.013 97.3925 253.76C97.0725 254.507 96.9125 255.393 96.9125 256.42C96.9125 257.46 97.0658 258.36 97.3725 259.12C97.6792 259.867 98.1192 260.447 98.6925 260.86C99.2658 261.26 99.9392 261.46 100.713 261.46C101.313 261.46 101.846 261.333 102.313 261.08C102.793 260.827 103.226 260.487 103.613 260.06L104.713 261.34C104.193 261.94 103.593 262.407 102.913 262.74C102.246 263.073 101.486 263.24 100.633 263.24ZM111.997 263.24C110.877 263.24 109.89 262.967 109.037 262.42C108.184 261.86 107.51 261.067 107.017 260.04C106.537 259.013 106.297 257.8 106.297 256.4C106.297 254.987 106.537 253.78 107.017 252.78C107.51 251.767 108.184 250.993 109.037 250.46C109.89 249.927 110.877 249.66 111.997 249.66C113.117 249.66 114.104 249.927 114.957 250.46C115.81 250.993 116.477 251.767 116.957 252.78C117.45 253.78 117.697 254.987 117.697 256.4C117.697 257.8 117.45 259.013 116.957 260.04C116.477 261.067 115.81 261.86 114.957 262.42C114.104 262.967 113.117 263.24 111.997 263.24ZM111.997 261.46C112.73 261.46 113.364 261.253 113.897 260.84C114.444 260.427 114.864 259.84 115.157 259.08C115.45 258.32 115.597 257.427 115.597 256.4C115.597 255.373 115.45 254.493 115.157 253.76C114.864 253.013 114.444 252.44 113.897 252.04C113.364 251.64 112.73 251.44 111.997 251.44C111.264 251.44 110.624 251.64 110.077 252.04C109.544 252.44 109.13 253.013 108.837 253.76C108.544 254.493 108.397 255.373 108.397 256.4C108.397 257.427 108.544 258.32 108.837 259.08C109.13 259.84 109.544 260.427 110.077 260.84C110.624 261.253 111.264 261.46 111.997 261.46ZM120.415 263V249.9H122.515L126.875 257.64L128.255 260.4H128.335C128.295 259.733 128.242 259.02 128.175 258.26C128.109 257.5 128.075 256.767 128.075 256.06V249.9H130.015V263H127.915L123.555 255.24L122.175 252.5H122.095C122.149 253.167 122.202 253.867 122.255 254.6C122.322 255.333 122.355 256.06 122.355 256.78V263H120.415ZM135.822 263L131.702 249.9H133.862L135.822 256.7C136.049 257.46 136.249 258.18 136.422 258.86C136.596 259.527 136.796 260.24 137.022 261H137.102C137.329 260.24 137.529 259.527 137.702 258.86C137.889 258.18 138.089 257.46 138.302 256.7L140.242 249.9H142.322L138.222 263H135.822ZM144.009 263V249.9H151.749V251.62H146.049V255.3H150.869V257.02H146.049V261.28H151.949V263H144.009ZM154.673 263V249.9H158.953C159.846 249.9 160.646 250.02 161.353 250.26C162.073 250.487 162.64 250.88 163.053 251.44C163.466 252 163.673 252.753 163.673 253.7C163.673 254.607 163.466 255.353 163.053 255.94C162.64 256.527 162.073 256.967 161.353 257.26C160.646 257.553 159.846 257.7 158.953 257.7H156.713V263H154.673ZM161.833 263L158.553 257.14L160.073 256L164.133 263H161.833ZM156.713 256.06H158.713C159.673 256.06 160.4 255.867 160.893 255.48C161.4 255.08 161.653 254.487 161.653 253.7C161.653 252.9 161.4 252.34 160.893 252.02C160.4 251.7 159.673 251.54 158.713 251.54H156.713V256.06ZM168.994 263V251.62H165.134V249.9H174.894V251.62H171.034V263H168.994ZM177.154 263V249.9H184.894V251.62H179.194V255.3H184.014V257.02H179.194V261.28H185.094V263H177.154ZM187.818 263V249.9H192.098C192.991 249.9 193.791 250.02 194.498 250.26C195.218 250.487 195.784 250.88 196.198 251.44C196.611 252 196.818 252.753 196.818 253.7C196.818 254.607 196.611 255.353 196.198 255.94C195.784 256.527 195.218 256.967 194.498 257.26C193.791 257.553 192.991 257.7 192.098 257.7H189.858V263H187.818ZM194.978 263L191.698 257.14L193.218 256L197.278 263H194.978ZM189.858 256.06H191.858C192.818 256.06 193.544 255.867 194.038 255.48C194.544 255.08 194.798 254.487 194.798 253.7C194.798 252.9 194.544 252.34 194.038 252.02C193.544 251.7 192.818 251.54 191.858 251.54H189.858V256.06Z" fill="black"/>
<path d="M379.32 263.24C378.44 263.24 377.687 263.06 377.06 262.7C376.447 262.327 375.94 261.787 375.54 261.08L376.96 260.04C377.24 260.533 377.56 260.893 377.92 261.12C378.28 261.347 378.673 261.46 379.1 261.46C379.753 261.46 380.24 261.26 380.56 260.86C380.893 260.46 381.06 259.78 381.06 258.82V249.9H383.1V259C383.1 259.787 382.967 260.5 382.7 261.14C382.447 261.78 382.04 262.293 381.48 262.68C380.92 263.053 380.2 263.24 379.32 263.24ZM390.226 263.24C389.332 263.24 388.486 263.067 387.686 262.72C386.886 262.373 386.179 261.9 385.566 261.3L386.766 259.92C387.232 260.387 387.772 260.76 388.386 261.04C388.999 261.32 389.626 261.46 390.266 261.46C391.066 261.46 391.679 261.293 392.106 260.96C392.532 260.613 392.746 260.153 392.746 259.58C392.746 259.18 392.652 258.86 392.466 258.62C392.292 258.38 392.046 258.173 391.726 258C391.419 257.827 391.059 257.653 390.646 257.48L388.826 256.68C388.399 256.507 387.979 256.273 387.566 255.98C387.166 255.687 386.832 255.32 386.566 254.88C386.299 254.44 386.166 253.9 386.166 253.26C386.166 252.567 386.352 251.953 386.726 251.42C387.099 250.873 387.606 250.447 388.246 250.14C388.886 249.82 389.619 249.66 390.446 249.66C391.219 249.66 391.946 249.813 392.626 250.12C393.319 250.413 393.912 250.807 394.406 251.3L393.346 252.6C392.946 252.24 392.506 251.96 392.026 251.76C391.546 251.547 391.019 251.44 390.446 251.44C389.779 251.44 389.239 251.593 388.826 251.9C388.426 252.193 388.226 252.607 388.226 253.14C388.226 253.513 388.326 253.82 388.526 254.06C388.726 254.3 388.992 254.5 389.326 254.66C389.659 254.82 389.999 254.98 390.346 255.14L392.146 255.9C392.666 256.113 393.126 256.373 393.526 256.68C393.926 256.987 394.239 257.36 394.466 257.8C394.706 258.24 394.826 258.78 394.826 259.42C394.826 260.127 394.639 260.773 394.266 261.36C393.906 261.933 393.379 262.393 392.686 262.74C391.992 263.073 391.172 263.24 390.226 263.24ZM402.266 263.24C401.146 263.24 400.16 262.967 399.306 262.42C398.453 261.86 397.78 261.067 397.286 260.04C396.806 259.013 396.566 257.8 396.566 256.4C396.566 254.987 396.806 253.78 397.286 252.78C397.78 251.767 398.453 250.993 399.306 250.46C400.16 249.927 401.146 249.66 402.266 249.66C403.386 249.66 404.373 249.927 405.226 250.46C406.08 250.993 406.746 251.767 407.226 252.78C407.72 253.78 407.966 254.987 407.966 256.4C407.966 257.8 407.72 259.013 407.226 260.04C406.746 261.067 406.08 261.86 405.226 262.42C404.373 262.967 403.386 263.24 402.266 263.24ZM402.266 261.46C403 261.46 403.633 261.253 404.166 260.84C404.713 260.427 405.133 259.84 405.426 259.08C405.72 258.32 405.866 257.427 405.866 256.4C405.866 255.373 405.72 254.493 405.426 253.76C405.133 253.013 404.713 252.44 404.166 252.04C403.633 251.64 403 251.44 402.266 251.44C401.533 251.44 400.893 251.64 400.346 252.04C399.813 252.44 399.4 253.013 399.106 253.76C398.813 254.493 398.666 255.373 398.666 256.4C398.666 257.427 398.813 258.32 399.106 259.08C399.4 259.84 399.813 260.427 400.346 260.84C400.893 261.253 401.533 261.46 402.266 261.46ZM410.685 263V249.9H412.785L417.145 257.64L418.525 260.4H418.605C418.565 259.733 418.512 259.02 418.445 258.26C418.378 257.5 418.345 256.767 418.345 256.06V249.9H420.285V263H418.185L413.825 255.24L412.445 252.5H412.365C412.418 253.167 412.472 253.867 412.525 254.6C412.592 255.333 412.625 256.06 412.625 256.78V263H410.685ZM427.736 263V249.9H435.496V251.62H429.776V255.64H434.636V257.36H429.776V263H427.736ZM442.774 263.24C441.654 263.24 440.668 262.967 439.814 262.42C438.961 261.86 438.288 261.067 437.794 260.04C437.314 259.013 437.074 257.8 437.074 256.4C437.074 254.987 437.314 253.78 437.794 252.78C438.288 251.767 438.961 250.993 439.814 250.46C440.668 249.927 441.654 249.66 442.774 249.66C443.894 249.66 444.881 249.927 445.734 250.46C446.588 250.993 447.254 251.767 447.734 252.78C448.228 253.78 448.474 254.987 448.474 256.4C448.474 257.8 448.228 259.013 447.734 260.04C447.254 261.067 446.588 261.86 445.734 262.42C444.881 262.967 443.894 263.24 442.774 263.24ZM442.774 261.46C443.508 261.46 444.141 261.253 444.674 260.84C445.221 260.427 445.641 259.84 445.934 259.08C446.228 258.32 446.374 257.427 446.374 256.4C446.374 255.373 446.228 254.493 445.934 253.76C445.641 253.013 445.221 252.44 444.674 252.04C444.141 251.64 443.508 251.44 442.774 251.44C442.041 251.44 441.401 251.64 440.854 252.04C440.321 252.44 439.908 253.013 439.614 253.76C439.321 254.493 439.174 255.373 439.174 256.4C439.174 257.427 439.321 258.32 439.614 259.08C439.908 259.84 440.321 260.427 440.854 260.84C441.401 261.253 442.041 261.46 442.774 261.46ZM451.193 263V249.9H455.473C456.366 249.9 457.166 250.02 457.873 250.26C458.593 250.487 459.159 250.88 459.573 251.44C459.986 252 460.193 252.753 460.193 253.7C460.193 254.607 459.986 255.353 459.573 255.94C459.159 256.527 458.593 256.967 457.873 257.26C457.166 257.553 456.366 257.7 455.473 257.7H453.233V263H451.193ZM458.353 263L455.073 257.14L456.593 256L460.653 263H458.353ZM453.233 256.06H455.233C456.193 256.06 456.919 255.867 457.413 255.48C457.919 255.08 458.173 254.487 458.173 253.7C458.173 252.9 457.919 252.34 457.413 252.02C456.919 251.7 456.193 251.54 455.233 251.54H453.233V256.06ZM462.833 263V249.9H465.193L467.593 256.56C467.74 256.987 467.887 257.427 468.033 257.88C468.18 258.32 468.327 258.76 468.473 259.2H468.553C468.7 258.76 468.84 258.32 468.973 257.88C469.12 257.427 469.267 256.987 469.413 256.56L471.773 249.9H474.133V263H472.253V256.48C472.253 256.08 472.267 255.647 472.293 255.18C472.333 254.7 472.373 254.22 472.413 253.74C472.453 253.26 472.487 252.827 472.513 252.44H472.433L471.393 255.46L469.093 261.72H467.833L465.533 255.46L464.493 252.44H464.413C464.44 252.827 464.473 253.26 464.513 253.74C464.553 254.22 464.587 254.7 464.613 255.18C464.653 255.647 464.673 256.08 464.673 256.48V263H462.833ZM475.859 263L480.199 249.9H482.559L486.899 263H484.739L482.619 255.88C482.393 255.16 482.179 254.44 481.979 253.72C481.779 252.987 481.579 252.253 481.379 251.52H481.299C481.113 252.253 480.913 252.987 480.699 253.72C480.499 254.44 480.293 255.16 480.079 255.88L477.939 263H475.859ZM478.299 259.26V257.66H484.399V259.26H478.299ZM491.295 263V251.62H487.435V249.9H497.195V251.62H493.335V263H491.295ZM502.134 263V251.62H498.274V249.9H508.034V251.62H504.174V263H502.134ZM510.294 263V249.9H518.034V251.62H512.334V255.3H517.154V257.02H512.334V261.28H518.234V263H510.294ZM520.958 263V249.9H525.238C526.132 249.9 526.932 250.02 527.638 250.26C528.358 250.487 528.925 250.88 529.338 251.44C529.752 252 529.958 252.753 529.958 253.7C529.958 254.607 529.752 255.353 529.338 255.94C528.925 256.527 528.358 256.967 527.638 257.26C526.932 257.553 526.132 257.7 525.238 257.7H522.998V263H520.958ZM528.118 263L524.838 257.14L526.358 256L530.418 263H528.118ZM522.998 256.06H524.998C525.958 256.06 526.685 255.867 527.178 255.48C527.685 255.08 527.938 254.487 527.938 253.7C527.938 252.9 527.685 252.34 527.178 252.02C526.685 251.7 525.958 251.54 524.998 251.54H522.998V256.06Z" fill="black"/>
<rect x="800" y="200" width="261" height="229" rx="18" fill="#F3FCFF"/>
<defs>
<clipPath id="clip0_16_2">
<rect width="100" height="100" fill="white" transform="translate(55 28)"/>
</clipPath>
</defs>
</svg>
